<svg width="98" height="16" fill="none" xmlns="http://www.w3.org/2000/svg"><path d="M9.703 9.6c0-1.508.722-2.395 2.105-2.395 1.301 0 1.735.929 1.735 2.126v6.42h2.93v-6.75c0-2.519-1.32-4.315-3.921-4.315-1.549 0-2.643.475-3.593 1.528-.619-.95-1.672-1.528-3.137-1.528-1.549 0-2.622.64-3.118 1.57V4.933H0V15.75h2.931V9.538c0-1.446.744-2.333 2.106-2.333 1.3 0 1.734.929 1.734 2.126v6.42h2.932V9.6zm19.423 1.59s.04-.393.04-.868c0-3.2-2.167-5.636-5.367-5.636s-5.429 2.436-5.429 5.636c0 3.324 2.25 5.677 5.45 5.677 2.498 0 4.48-1.507 5.12-3.695h-2.952c-.351.784-1.198 1.176-2.085 1.176-1.466 0-2.416-.805-2.622-2.29h7.845zm-5.347-4.15c1.362 0 2.25.825 2.456 2.043h-4.913c.248-1.238 1.115-2.043 2.457-2.043zm12.447 6.11s-.289.104-.681.104c-.764 0-1.094-.33-1.094-1.053V7.246h1.796V4.934H34.45V2.25h-2.932v2.684h-1.465v2.312h1.465v5.264c0 2.085.95 3.303 3.324 3.303.888 0 1.383-.123 1.383-.123v-2.54zM42.817 16c3.468 0 5.677-2.581 5.677-5.657s-2.21-5.657-5.677-5.657c-3.469 0-5.678 2.58-5.678 5.657 0 3.076 2.21 5.656 5.678 5.656zm-2.746-5.657c0-1.94 1.197-3.076 2.746-3.076 1.548 0 2.745 1.135 2.745 3.076 0 1.94-1.197 3.076-2.745 3.076-1.549 0-2.746-1.136-2.746-3.076zM60.204 9.6c0-1.508.723-2.395 2.106-2.395 1.3 0 1.734.929 1.734 2.126v6.42h2.932v-6.75c0-2.519-1.322-4.315-3.923-4.315-1.548 0-2.642.475-3.592 1.528-.62-.95-1.672-1.528-3.138-1.528-1.548 0-2.622.64-3.117 1.57V4.933h-2.705V15.75h2.932V9.538c0-1.446.743-2.333 2.106-2.333 1.3 0 1.734.929 1.734 2.126v6.42h2.931V9.6zm10.815-6.07c1.032 0 1.775-.722 1.775-1.755C72.794.743 72.051 0 71.02 0c-1.033 0-1.776.743-1.776 1.775 0 1.033.743 1.755 1.776 1.755zm-1.466 12.221h2.931V4.934h-2.931V15.75zm4.943-5.408c0 3.22 2.292 5.656 5.43 5.656 3.365 0 4.954-2.374 5.16-4.211h-3.013c-.227.929-1.094 1.61-2.168 1.61-1.569 0-2.477-1.239-2.477-3.055 0-1.817.908-3.056 2.477-3.056 1.073 0 1.94.682 2.168 1.61h3.014c-.207-1.837-1.796-4.21-5.161-4.21-3.138 0-5.43 2.435-5.43 5.656zM98 12.879H87.678v2.766H98V12.88z" fill="#58466D"/></svg>