<svg xmlns="http://www.w3.org/2000/svg" viewBox="0 0 249 69"><g fill="none" fill-rule="evenodd"><path stroke="#05C77E" stroke-linecap="round" stroke-linejoin="round" stroke-width="4" d="M2 46.081h74.724"/><path stroke="#05C77E" stroke-linecap="round" stroke-linejoin="round" stroke-width="3.994" d="M17.346 56.081h44.031"/><path stroke="#05C77E" stroke-linecap="round" stroke-linejoin="round" stroke-width="4" d="M32.694 66.081h13.335m-3.963-35.375l9.595-14.453 16.715 29.828"/><path fill="#05C77E" fill-rule="nonzero" d="M54.661.125c7.183 0 13.006 5.823 13.006 13.006 0 5.638-3.587 10.438-8.604 12.242l-1.869-3.337a9.26 9.26 0 006.723-8.905 9.256 9.256 0 00-18.512 0c0 2.207.772 4.233 2.062 5.824l-2.144 3.23a12.963 12.963 0 01-3.668-9.054c0-7.183 5.823-13.006 13.006-13.006z"/><path stroke="#05C77E" stroke-linecap="round" stroke-linejoin="round" stroke-width="4" d="M10.348 46.081l19.24-34.214 22.33 34.214"/><path fill="currentColor" fill-rule="nonzero" d="M208.577 26.856c3.415.001 6.068 1.204 7.837 3.44v-2.825h5.159V49.36c0 7.395-4.766 11.939-12.627 11.939-3.513 0-7.37-.958-9.851-2.727l1.867-4.348c2.383 1.449 5.11 2.383 7.984 2.383 4.815 0 7.468-2.653 7.468-7.026v-1.892c-1.769 2.26-4.422 3.439-7.837 3.439-5.38 0-10.907-4.521-10.907-12.136 0-7.615 5.527-12.136 10.907-12.136zm-27.839.001c3.341 0 5.773 1.375 7.395 3.464v-2.85h5.135v23.535h-5.135v-2.825c-1.621 2.088-4.053 3.439-7.395 3.439-6.583 0-11.767-5.184-11.767-12.382 0-7.198 5.184-12.381 11.767-12.381zm56.954.001c6.585-.001 11.105 5.011 11.129 12.356 0 .663-.049 1.327-.098 1.916H231.33c.688 4.226 3.66 5.995 7.001 5.995 2.358 0 4.864-.934 6.805-2.481l2.555 3.661c-2.875 2.457-6.117 3.316-9.679 3.316-7.051 0-12.038-4.914-12.038-12.382 0-7.37 4.791-12.381 11.718-12.381zM105.996 16.612l9.999 24.567 9.999-24.567h8.525v34.394h-5.553V22.705L118.918 47.64h-5.847l-10.048-24.665v28.031h-5.552V16.612h8.525zm40.419 10.859v23.535h-5.159V27.471h5.159zm18.009-.614c1.572 0 2.776.196 3.955.663l-1.228 5.085c-1.081-.565-2.653-.86-3.906-.86-3.268 0-5.601 2.309-5.601 6.313v12.947h-5.135V27.471h5.085v2.653c1.548-2.235 3.955-3.267 6.83-3.267zm16.929 4.839c-4.422 0-7.1 3.415-7.1 7.542s2.678 7.542 7.1 7.542c4.25 0 7.1-3.243 7.1-7.542 0-4.299-2.85-7.542-7.1-7.542zm28.55.001c-4.348-.001-6.952 3.316-6.952 7.296 0 3.956 2.604 7.296 6.952 7.296 4.152 0 6.953-3.169 6.953-7.296 0-4.127-2.801-7.296-6.953-7.296zm27.691-.271c-3.66 0-5.699 2.359-6.239 5.798h12.209c-.565-3.661-2.702-5.798-5.97-5.798zM143.81 15.703c2.039 0 3.636 1.597 3.636 3.636s-1.597 3.587-3.636 3.587-3.587-1.548-3.587-3.587 1.548-3.636 3.587-3.636z"/></g></svg>