<svg width="230" height="45" xmlns="http://www.w3.org/2000/svg"><defs><linearGradient x1="196.572%" y1="228.815%" x2="50%" y2="50%" id="a"><stop offset="0%"/><stop stop-color="#FFF" offset="100%"/></linearGradient></defs><g fill="none"><path fill="url(#a)" d="M25 0l25 44.146H0z"/><path d="M85.75 34h20.45v-3.55H90.85l15.1-21.55V5.8H86v3.55h14.85L85.75 30.9V34zm41.85 0h18.35v-3.55h-14.2V21.4h12.35v-3.55h-12.35v-8.5h14.2V5.8H127.6V34zm40.45 0h17.9v-3.55h-6.85V9.35h6.85V5.8h-17.9v3.55h6.9v21.1h-6.9V34zm47.35 0h4.15V9.35h9.6V5.8H205.9v3.55h9.5V34z" fill="#FFF"/></g></svg>